<svg xmlns="http://www.w3.org/2000/svg" xmlns:xlink="http://www.w3.org/1999/xlink" width="500" zoomAndPan="magnify" viewBox="0 0 375 374.999991" height="500" preserveAspectRatio="xMidYMid meet" version="1.0"><defs><g/><clipPath id="db399db640"><path d="M 160.664062 165.613281 L 286 165.613281 L 286 209.386719 L 160.664062 209.386719 Z M 160.664062 165.613281 " clip-rule="nonzero"/></clipPath><clipPath id="b9d2420373"><path d="M 192.902344 165.613281 L 279.910156 165.613281 C 282.0625 165.613281 284.046875 166.765625 285.113281 168.636719 C 286.175781 170.503906 286.15625 172.796875 285.0625 174.648438 L 269.839844 200.351562 C 266.523438 205.953125 260.5 209.386719 253.992188 209.386719 L 166.980469 209.386719 C 164.832031 209.386719 162.84375 208.234375 161.78125 206.363281 C 160.714844 204.496094 160.734375 202.203125 161.832031 200.351562 L 177.050781 174.648438 C 180.367188 169.046875 186.394531 165.613281 192.902344 165.613281 Z M 192.902344 165.613281 " clip-rule="nonzero"/></clipPath></defs><rect x="-37.5" width="450" fill="#ffffff" y="-37.499999" height="449.999989" fill-opacity="1"/><rect x="-37.5" width="450" fill="#ffffff" y="-37.499999" height="449.999989" fill-opacity="1"/><g clip-path="url(#db399db640)"><g clip-path="url(#b9d2420373)"><path fill="#000000" d="M 156.480469 165.613281 L 290.410156 165.613281 L 290.410156 209.386719 L 156.480469 209.386719 Z M 156.480469 165.613281 " fill-opacity="1" fill-rule="nonzero"/></g></g><g fill="#000000" fill-opacity="1"><g transform="translate(84.588215, 201.82856)"><g><path d="M 14.8125 -26.015625 C 18.820312 -26.015625 22.148438 -24.769531 24.796875 -22.28125 C 27.453125 -19.789062 28.78125 -16.675781 28.78125 -12.9375 C 28.78125 -9.175781 27.445312 -6.03125 24.78125 -3.5 C 22.113281 -0.96875 18.789062 0.296875 14.8125 0.296875 C 10.832031 0.296875 7.515625 -0.960938 4.859375 -3.484375 C 2.210938 -6.003906 0.890625 -9.15625 0.890625 -12.9375 C 0.890625 -16.695312 2.210938 -19.816406 4.859375 -22.296875 C 7.515625 -24.773438 10.832031 -26.015625 14.8125 -26.015625 Z M 14.890625 -20.53125 C 12.878906 -20.53125 11.160156 -19.796875 9.734375 -18.328125 C 8.304688 -16.867188 7.59375 -15.054688 7.59375 -12.890625 C 7.59375 -10.734375 8.3125 -8.910156 9.75 -7.421875 C 11.1875 -5.941406 12.898438 -5.203125 14.890625 -5.203125 C 16.878906 -5.203125 18.566406 -5.941406 19.953125 -7.421875 C 21.347656 -8.910156 22.046875 -10.734375 22.046875 -12.890625 C 22.046875 -15.054688 21.347656 -16.867188 19.953125 -18.328125 C 18.566406 -19.796875 16.878906 -20.53125 14.890625 -20.53125 Z M 14.890625 -20.53125 "/></g></g></g><g fill="#000000" fill-opacity="1"><g transform="translate(112.15556, 201.82856)"><g><path d="M 15.546875 -20.15625 C 17.734375 -20.15625 19.488281 -19.460938 20.8125 -18.078125 C 22.144531 -16.691406 22.8125 -14.84375 22.8125 -12.53125 L 22.8125 0 L 16.46875 0 L 16.46875 -10.765625 C 16.46875 -11.921875 16.15625 -12.832031 15.53125 -13.5 C 14.90625 -14.175781 14.050781 -14.515625 12.96875 -14.515625 C 11.84375 -14.515625 10.914062 -14.144531 10.1875 -13.40625 C 9.46875 -12.675781 9.046875 -11.707031 8.921875 -10.5 L 8.921875 0 L 2.546875 0 L 2.546875 -19.859375 L 8.921875 -19.859375 L 8.921875 -16.625 C 10.316406 -18.9375 12.523438 -20.113281 15.546875 -20.15625 Z M 15.546875 -20.15625 "/></g></g></g><g fill="#000000" fill-opacity="1"><g transform="translate(134.857976, 201.82856)"><g><path d="M 11.234375 -20.09375 C 14.679688 -20.09375 17.269531 -19.035156 19 -16.921875 C 20.726562 -14.804688 21.484375 -11.90625 21.265625 -8.21875 L 7.296875 -8.21875 C 7.617188 -7.039062 8.179688 -6.128906 8.984375 -5.484375 C 9.796875 -4.847656 10.796875 -4.53125 11.984375 -4.53125 C 13.796875 -4.53125 15.378906 -5.207031 16.734375 -6.5625 L 20.09375 -3.28125 C 17.945312 -0.945312 15.054688 0.21875 11.421875 0.21875 C 8.203125 0.21875 5.640625 -0.703125 3.734375 -2.546875 C 1.835938 -4.390625 0.890625 -6.832031 0.890625 -9.875 C 0.890625 -12.945312 1.835938 -15.414062 3.734375 -17.28125 C 5.640625 -19.15625 8.140625 -20.09375 11.234375 -20.09375 Z M 7.1875 -11.640625 L 15.15625 -11.640625 C 15.15625 -12.847656 14.800781 -13.820312 14.09375 -14.5625 C 13.394531 -15.300781 12.46875 -15.671875 11.3125 -15.671875 C 10.226562 -15.671875 9.316406 -15.304688 8.578125 -14.578125 C 7.847656 -13.847656 7.382812 -12.867188 7.1875 -11.640625 Z M 7.1875 -11.640625 "/></g></g></g><g fill="#ffffff" fill-opacity="1"><g transform="translate(177.087034, 202.012906)"><g><path d="M 23.59375 -21.59375 L 9.796875 -5.203125 L 23.8125 -5.203125 L 23.8125 0 L 1.03125 0 L 1.03125 -4.203125 L 14.859375 -20.609375 L 1.515625 -20.609375 L 1.515625 -25.796875 L 23.59375 -25.796875 Z M 23.59375 -21.59375 "/></g></g></g><g fill="#ffffff" fill-opacity="1"><g transform="translate(199.867594, 202.012906)"><g><path d="M 11.234375 -20.09375 C 14.679688 -20.09375 17.269531 -19.035156 19 -16.921875 C 20.726562 -14.804688 21.484375 -11.90625 21.265625 -8.21875 L 7.296875 -8.21875 C 7.617188 -7.039062 8.179688 -6.128906 8.984375 -5.484375 C 9.796875 -4.847656 10.796875 -4.53125 11.984375 -4.53125 C 13.796875 -4.53125 15.378906 -5.207031 16.734375 -6.5625 L 20.09375 -3.28125 C 17.945312 -0.945312 15.054688 0.21875 11.421875 0.21875 C 8.203125 0.21875 5.640625 -0.703125 3.734375 -2.546875 C 1.835938 -4.390625 0.890625 -6.832031 0.890625 -9.875 C 0.890625 -12.945312 1.835938 -15.414062 3.734375 -17.28125 C 5.640625 -19.15625 8.140625 -20.09375 11.234375 -20.09375 Z M 7.1875 -11.640625 L 15.15625 -11.640625 C 15.15625 -12.847656 14.800781 -13.820312 14.09375 -14.5625 C 13.394531 -15.300781 12.46875 -15.671875 11.3125 -15.671875 C 10.226562 -15.671875 9.316406 -15.304688 8.578125 -14.578125 C 7.847656 -13.847656 7.382812 -12.867188 7.1875 -11.640625 Z M 7.1875 -11.640625 "/></g></g></g><g fill="#ffffff" fill-opacity="1"><g transform="translate(219.957224, 202.012906)"><g><path d="M 8.921875 -19.859375 L 8.921875 -16.515625 C 10.316406 -18.898438 12.46875 -20.113281 15.375 -20.15625 L 15.375 -14.40625 C 13.550781 -14.582031 12.0625 -14.28125 10.90625 -13.5 C 9.75 -12.726562 9.085938 -11.628906 8.921875 -10.203125 L 8.921875 0 L 2.546875 0 L 2.546875 -19.859375 Z M 8.921875 -19.859375 "/></g></g></g><g fill="#ffffff" fill-opacity="1"><g transform="translate(233.595983, 202.012906)"><g><path d="M 11.765625 -20.09375 C 15.003906 -20.09375 17.617188 -19.160156 19.609375 -17.296875 C 21.597656 -15.441406 22.59375 -12.988281 22.59375 -9.9375 C 22.59375 -6.894531 21.597656 -4.441406 19.609375 -2.578125 C 17.617188 -0.710938 15.003906 0.21875 11.765625 0.21875 C 8.492188 0.21875 5.863281 -0.710938 3.875 -2.578125 C 1.882812 -4.441406 0.890625 -6.894531 0.890625 -9.9375 C 0.890625 -12.988281 1.882812 -15.441406 3.875 -17.296875 C 5.863281 -19.160156 8.492188 -20.09375 11.765625 -20.09375 Z M 11.765625 -15.03125 C 10.429688 -15.03125 9.351562 -14.550781 8.53125 -13.59375 C 7.707031 -12.632812 7.296875 -11.394531 7.296875 -9.875 C 7.296875 -8.332031 7.707031 -7.085938 8.53125 -6.140625 C 9.351562 -5.191406 10.429688 -4.71875 11.765625 -4.71875 C 13.066406 -4.71875 14.128906 -5.191406 14.953125 -6.140625 C 15.773438 -7.085938 16.1875 -8.332031 16.1875 -9.875 C 16.1875 -11.394531 15.773438 -12.632812 14.953125 -13.59375 C 14.128906 -14.550781 13.066406 -15.03125 11.765625 -15.03125 Z M 11.765625 -15.03125 "/></g></g></g><g fill="#ffffff" fill-opacity="1"><g transform="translate(254.975776, 202.012906)"><g><path d="M 2.25 -5.015625 C 2.8125 -5.578125 3.546875 -5.859375 4.453125 -5.859375 C 5.367188 -5.859375 6.113281 -5.578125 6.6875 -5.015625 C 7.269531 -4.453125 7.5625 -3.710938 7.5625 -2.796875 C 7.5625 -1.890625 7.269531 -1.144531 6.6875 -0.5625 C 6.113281 0.0078125 5.367188 0.296875 4.453125 0.296875 C 3.546875 0.296875 2.8125 0.0078125 2.25 -0.5625 C 1.6875 -1.144531 1.40625 -1.890625 1.40625 -2.796875 C 1.40625 -3.710938 1.6875 -4.453125 2.25 -5.015625 Z M 2.25 -5.015625 "/></g></g></g></svg>