<svg xmlns="http://www.w3.org/2000/svg" xmlns:xlink="http://www.w3.org/1999/xlink" width="282" zoomAndPan="magnify" viewBox="0 0 211.5 50.999998" height="68" preserveAspectRatio="xMidYMid meet" version="1.0"><defs><g/><clipPath id="8640d9015e"><path d="M 0 0.0585938 L 211 0.0585938 L 211 50.9375 L 0 50.9375 Z M 0 0.0585938 " clip-rule="nonzero"/></clipPath><clipPath id="2ae1a957b7"><path d="M 19 0.0585938 L 55.96875 0.0585938 L 55.96875 43 L 19 43 Z M 19 0.0585938 " clip-rule="nonzero"/></clipPath><clipPath id="91fbd7328f"><path d="M 5.089844 8 L 42 8 L 42 50.9375 L 5.089844 50.9375 Z M 5.089844 8 " clip-rule="nonzero"/></clipPath></defs><g clip-path="url(#8640d9015e)"><path fill="#ffffff" d="M 0 0.0585938 L 211 0.0585938 L 211 50.941406 L 0 50.941406 Z M 0 0.0585938 " fill-opacity="1" fill-rule="nonzero"/><path fill="#ffffff" d="M 0 0.0585938 L 211 0.0585938 L 211 50.941406 L 0 50.941406 Z M 0 0.0585938 " fill-opacity="1" fill-rule="nonzero"/></g><g clip-path="url(#2ae1a957b7)"><path fill="#000000" d="M 19.722656 2.46875 C 20.007812 2.328125 20.324219 2.195312 20.628906 2.0625 C 22.515625 1.265625 24.46875 0.707031 26.472656 0.382812 C 27.804688 0.171875 29.160156 0.0625 30.527344 0.0625 C 33.960938 0.0625 37.292969 0.738281 40.429688 2.0625 C 43.460938 3.347656 46.179688 5.179688 48.515625 7.515625 C 50.851562 9.847656 52.683594 12.570312 53.964844 15.597656 C 55.292969 18.734375 55.96875 22.066406 55.96875 25.5 C 55.96875 28.933594 55.300781 32.265625 53.972656 35.402344 C 52.820312 38.125 51.238281 40.597656 49.226562 42.765625 L 49.226562 25.5 C 49.226562 15.203125 40.828125 6.824219 30.53125 6.824219 C 29.140625 6.824219 27.777344 6.976562 26.460938 7.265625 L 26.460938 25.5 L 26.472656 25.5 C 26.472656 27.769531 28.3125 29.578125 30.554688 29.578125 C 32.796875 29.578125 34.636719 27.75 34.636719 25.5 L 34.636719 15.457031 C 35.953125 15.996094 37.167969 16.800781 38.207031 17.839844 C 40.253906 19.886719 41.367188 22.609375 41.367188 25.5 C 41.367188 28.394531 40.242188 31.113281 38.199219 33.160156 C 36.15625 35.207031 33.4375 36.335938 30.542969 36.335938 C 27.648438 36.335938 24.925781 35.207031 22.882812 33.15625 C 20.839844 31.113281 19.71875 28.390625 19.71875 25.496094 Z M 19.722656 2.46875 " fill-opacity="1" fill-rule="nonzero"/></g><g clip-path="url(#91fbd7328f)"><path fill="#000000" d="M 30.53125 50.933594 C 27.097656 50.933594 23.761719 50.261719 20.625 48.933594 C 17.597656 47.652344 14.875 45.820312 12.542969 43.484375 C 10.207031 41.148438 8.371094 38.429688 7.089844 35.402344 C 5.765625 32.261719 5.089844 28.929688 5.089844 25.5 C 5.089844 22.066406 5.757812 18.734375 7.082031 15.597656 C 8.234375 12.875 9.816406 10.402344 11.832031 8.234375 L 11.832031 25.5 C 11.832031 35.796875 20.226562 44.175781 30.523438 44.175781 C 34.5625 44.175781 38.296875 42.890625 41.378906 40.703125 L 41.378906 48.515625 C 41.050781 48.660156 40.75 48.800781 40.4375 48.933594 C 37.296875 50.261719 33.964844 50.933594 30.53125 50.933594 Z M 30.53125 50.933594 " fill-opacity="1" fill-rule="nonzero"/></g><g fill="#000000" fill-opacity="1"><g transform="translate(61.607501, 35.090589)"><g><path d="M 28.53125 -16.34375 L 28.53125 -10.015625 C 27.769531 -6.546875 26.113281 -3.921875 23.5625 -2.140625 C 21.019531 -0.359375 18.179688 0.53125 15.046875 0.53125 C 11.097656 0.53125 7.738281 -0.941406 4.96875 -3.890625 C 2.195312 -6.835938 0.8125 -10.398438 0.8125 -14.578125 C 0.8125 -18.828125 2.164062 -22.414062 4.875 -25.34375 C 7.59375 -28.269531 10.984375 -29.734375 15.046875 -29.734375 C 19.785156 -29.734375 23.535156 -28.066406 26.296875 -24.734375 L 21.9375 -19.953125 C 20.382812 -22.460938 18.21875 -23.71875 15.4375 -23.71875 C 13.375 -23.71875 11.617188 -22.828125 10.171875 -21.046875 C 8.722656 -19.265625 8 -17.109375 8 -14.578125 C 8 -12.097656 8.722656 -9.976562 10.171875 -8.21875 C 11.617188 -6.46875 13.375 -5.59375 15.4375 -5.59375 C 17.132812 -5.59375 18.613281 -6.101562 19.875 -7.125 C 21.132812 -8.15625 21.765625 -9.519531 21.765625 -11.21875 L 15.046875 -11.21875 L 15.046875 -16.34375 Z M 28.53125 -16.34375 "/></g></g></g><g fill="#000000" fill-opacity="1"><g transform="translate(87.617901, 35.090589)"><g><path d="M 2.125 0 L 2.125 -18.15625 L 8.390625 -18.15625 L 8.390625 -15.53125 L 8.453125 -15.53125 C 8.503906 -15.625 8.582031 -15.742188 8.6875 -15.890625 C 8.789062 -16.035156 9.019531 -16.285156 9.375 -16.640625 C 9.726562 -16.992188 10.101562 -17.3125 10.5 -17.59375 C 10.90625 -17.875 11.425781 -18.125 12.0625 -18.34375 C 12.707031 -18.570312 13.359375 -18.6875 14.015625 -18.6875 C 14.703125 -18.6875 15.375 -18.59375 16.03125 -18.40625 C 16.6875 -18.21875 17.171875 -18.03125 17.484375 -17.84375 L 17.984375 -17.546875 L 15.359375 -12.25 C 14.578125 -12.90625 13.492188 -13.234375 12.109375 -13.234375 C 11.347656 -13.234375 10.695312 -13.066406 10.15625 -12.734375 C 9.613281 -12.410156 9.226562 -12.007812 9 -11.53125 C 8.78125 -11.0625 8.625 -10.660156 8.53125 -10.328125 C 8.4375 -10.003906 8.390625 -9.75 8.390625 -9.5625 L 8.390625 0 Z M 2.125 0 "/></g></g></g><g fill="#000000" fill-opacity="1"><g transform="translate(101.914339, 35.090589)"><g><path d="M 3.828125 -2.15625 C 1.816406 -3.945312 0.8125 -6.242188 0.8125 -9.046875 C 0.8125 -11.859375 1.859375 -14.164062 3.953125 -15.96875 C 6.054688 -17.78125 8.65625 -18.6875 11.75 -18.6875 C 14.789062 -18.6875 17.351562 -17.773438 19.4375 -15.953125 C 21.53125 -14.140625 22.578125 -11.84375 22.578125 -9.0625 C 22.578125 -6.28125 21.554688 -3.984375 19.515625 -2.171875 C 17.472656 -0.367188 14.882812 0.53125 11.75 0.53125 C 8.488281 0.53125 5.847656 -0.363281 3.828125 -2.15625 Z M 8.6875 -12.140625 C 7.875 -11.335938 7.46875 -10.3125 7.46875 -9.0625 C 7.46875 -7.8125 7.851562 -6.789062 8.625 -6 C 9.40625 -5.207031 10.4375 -4.8125 11.71875 -4.8125 C 12.9375 -4.8125 13.941406 -5.210938 14.734375 -6.015625 C 15.523438 -6.816406 15.921875 -7.832031 15.921875 -9.0625 C 15.921875 -10.3125 15.515625 -11.335938 14.703125 -12.140625 C 13.890625 -12.941406 12.894531 -13.34375 11.71875 -13.34375 C 10.507812 -13.34375 9.5 -12.941406 8.6875 -12.140625 Z M 8.6875 -12.140625 "/></g></g></g><g fill="#000000" fill-opacity="1"><g transform="translate(121.979285, 35.090589)"><g><path d="M 13.265625 0 L 9.03125 0 L -0.703125 -18.15625 L 6.515625 -18.15625 L 10.9375 -8.359375 L 15.28125 -18.15625 L 19.609375 -18.15625 L 23.953125 -8.359375 L 28.390625 -18.15625 L 35.609375 -18.15625 L 25.875 0 L 21.625 0 L 17.453125 -9.375 Z M 13.265625 0 "/></g></g></g><g fill="#000000" fill-opacity="1"><g transform="translate(153.545858, 35.090589)"><g><path d="M 8.03125 -18.15625 L 8.03125 -9.515625 C 8.03125 -7.722656 8.300781 -6.445312 8.84375 -5.6875 C 9.382812 -4.9375 10.300781 -4.5625 11.59375 -4.5625 C 12.894531 -4.5625 13.816406 -4.9375 14.359375 -5.6875 C 14.910156 -6.445312 15.1875 -7.722656 15.1875 -9.515625 L 15.1875 -18.15625 L 21.453125 -18.15625 L 21.453125 -8 C 21.453125 -4.976562 20.664062 -2.800781 19.09375 -1.46875 C 17.519531 -0.132812 15.019531 0.53125 11.59375 0.53125 C 8.175781 0.53125 5.679688 -0.132812 4.109375 -1.46875 C 2.546875 -2.800781 1.765625 -4.976562 1.765625 -8 L 1.765625 -18.15625 Z M 8.03125 -18.15625 "/></g></g></g><g fill="#000000" fill-opacity="1"><g transform="translate(173.433862, 35.090589)"><g><path d="M 20.8125 -15.90625 C 22.507812 -14.050781 23.359375 -11.78125 23.359375 -9.09375 C 23.359375 -6.40625 22.507812 -4.128906 20.8125 -2.265625 C 19.113281 -0.398438 16.953125 0.53125 14.328125 0.53125 C 11.921875 0.53125 9.941406 -0.222656 8.390625 -1.734375 L 8.390625 9.203125 L 2.125 9.203125 L 2.125 -18.15625 L 8.3125 -18.15625 L 8.3125 -16.109375 L 8.390625 -16.109375 C 9.941406 -17.828125 11.921875 -18.6875 14.328125 -18.6875 C 16.953125 -18.6875 19.113281 -17.757812 20.8125 -15.90625 Z M 15.484375 -6.015625 C 16.296875 -6.816406 16.703125 -7.84375 16.703125 -9.09375 C 16.703125 -10.34375 16.3125 -11.363281 15.53125 -12.15625 C 14.757812 -12.945312 13.734375 -13.34375 12.453125 -13.34375 C 11.222656 -13.34375 10.210938 -12.941406 9.421875 -12.140625 C 8.640625 -11.335938 8.25 -10.320312 8.25 -9.09375 C 8.25 -7.84375 8.65625 -6.816406 9.46875 -6.015625 C 10.28125 -5.210938 11.273438 -4.8125 12.453125 -4.8125 C 13.660156 -4.8125 14.671875 -5.210938 15.484375 -6.015625 Z M 15.484375 -6.015625 "/></g></g></g><g fill="#000000" fill-opacity="1"><g transform="translate(194.277377, 35.090589)"><g><path d="M 6.15625 -7.578125 C 7.289062 -7.578125 8.253906 -7.179688 9.046875 -6.390625 C 9.835938 -5.597656 10.234375 -4.632812 10.234375 -3.5 C 10.234375 -2.394531 9.835938 -1.445312 9.046875 -0.65625 C 8.253906 0.132812 7.289062 0.53125 6.15625 0.53125 C 5.050781 0.53125 4.101562 0.132812 3.3125 -0.65625 C 2.519531 -1.445312 2.125 -2.394531 2.125 -3.5 C 2.125 -4.632812 2.519531 -5.597656 3.3125 -6.390625 C 4.101562 -7.179688 5.050781 -7.578125 6.15625 -7.578125 Z M 6.15625 -7.578125 "/></g></g></g></svg>