<svg xmlns="http://www.w3.org/2000/svg" xmlns:xlink="http://www.w3.org/1999/xlink" width="1024" zoomAndPan="magnify" viewBox="0 0 768 767.999994" height="1024" preserveAspectRatio="xMidYMid meet" version="1.0"><defs><filter x="0%" y="0%" width="100%" height="100%" id="8cef01de64"><feColorMatrix values="0 0 0 0 1 0 0 0 0 1 0 0 0 0 1 0 0 0 1 0" color-interpolation-filters="sRGB"/></filter><mask id="5bcd52ec35"><g filter="url(#8cef01de64)"><rect x="-76.8" width="921.6" fill="#000000" y="-76.799999" height="921.599993" fill-opacity="0.44"/></g></mask><clipPath id="5fac30cd60"><path d="M 0 0 L 768 0 L 768 768 L 0 768 Z M 0 0 " clip-rule="nonzero"/></clipPath><clipPath id="70c66bf0c9"><rect x="0" width="768" y="0" height="768"/></clipPath></defs><rect x="-76.8" width="921.6" fill="#ffffff" y="-76.799999" height="921.599993" fill-opacity="1"/><rect x="-76.8" width="921.6" fill="#ffffff" y="-76.799999" height="921.599993" fill-opacity="1"/><g mask="url(#5bcd52ec35)"><g transform="matrix(1, 0, 0, 1, 0, -0.000000000000057351)"><g clip-path="url(#70c66bf0c9)"><g clip-path="url(#5fac30cd60)"><path fill="#000000" d="M 203.3125 -6.347656 C 246.777344 4.882812 290.679688 26.871094 358.285156 71.179688 C 408.171875 103.878906 421.613281 115.53125 431.246094 134.421875 L 435.480469 142.734375 L 436.34375 154.738281 L 437.203125 166.742188 L 431.238281 198.117188 L 425.277344 229.488281 L 425.308594 254.441406 C 425.34375 297.726562 431.734375 324.964844 453.46875 374.511719 C 468.152344 407.980469 471.878906 419.75 471.855469 432.558594 L 471.824219 441.917969 L 467.34375 451.546875 C 457.683594 472.289062 439.710938 485.007812 372.757812 518.46875 C 326.976562 541.347656 303.859375 554.34375 264.433594 579.367188 C 231.160156 600.488281 202.128906 611.828125 169.699219 616.371094 C 153.671875 618.617188 109.234375 620.140625 93.265625 618.992188 C 74.144531 617.617188 44.441406 612.398438 34.441406 608.65625 C 13.308594 600.75 5.851562 588.863281 -0.0078125 553.738281 C -1.84375 542.730469 -3.925781 533.617188 -6.34375 525.917969 L -6.34375 562.671875 C -4.566406 572.007812 -2.28125 581.84375 -0.648438 586.234375 L 2.882812 595.730469 L 11.6875 603.96875 C 22.546875 614.128906 34.554688 618.777344 60.996094 623.066406 L 81.253906 626.355469 L 119.113281 626.386719 C 140.324219 626.414062 163.757812 625.386719 172.394531 624.085938 C 206.539062 618.933594 234.777344 607.921875 268.125 586.757812 C 307.550781 561.734375 330.667969 548.734375 376.449219 525.855469 C 402.695312 512.738281 430.121094 498.070312 437.394531 493.257812 C 455.058594 481.578125 469.121094 467.28125 474.667969 455.375 L 479.210938 445.613281 L 479.242188 432.558594 C 479.269531 415.9375 476.335938 406.109375 460.855469 370.816406 C 439.597656 322.363281 432.882812 294.378906 432.882812 254.25 L 432.882812 232.070312 L 438.730469 201.289062 L 444.582031 170.507812 L 443.78125 154.773438 L 442.984375 139.039062 L 438.738281 130.730469 C 428.714844 111.117188 412.164062 96.683594 361.984375 63.792969 C 307.023438 27.769531 267.726562 6.421875 231.59375 -6.34375 Z M 334.980469 -6.347656 L 336.121094 -5.59375 C 393.273438 32.09375 422.433594 46.972656 473.433594 64.460938 C 511.316406 77.453125 521.019531 82.085938 528.726562 90.863281 C 538.191406 101.640625 538.273438 112.457031 529.039062 130.726562 C 527.242188 134.28125 516.878906 149.65625 506.007812 164.894531 C 483.707031 196.144531 473.75 214.535156 467.796875 235.46875 L 463.707031 249.847656 L 463.847656 274.78125 L 463.988281 299.710938 L 467.863281 314.085938 C 473.25 334.054688 483.210938 354.464844 502.316406 384.679688 C 511.300781 398.894531 521.214844 415.921875 524.34375 422.527344 L 530.039062 434.53125 L 530.039062 462.519531 L 524.441406 471.609375 C 521.109375 477.023438 513.636719 484.65625 505.972656 490.476562 L 493.101562 500.25 L 439.542969 526.769531 C 410.085938 541.355469 378.097656 558.566406 368.460938 565.011719 L 350.9375 576.734375 L 318.597656 608.144531 L 286.253906 639.554688 L 274.832031 645.589844 C 251.617188 657.851562 230.386719 661.050781 143.125 665.441406 C 86.070312 668.3125 57.121094 670.824219 3.691406 677.539062 C 0.742188 677.90625 -3.015625 678.234375 -6.34375 678.601562 L -6.34375 686.371094 C -1.6875 685.890625 3.511719 685.453125 7.398438 684.960938 C 60.160156 678.269531 89.515625 675.710938 146.835938 672.828125 C 234.097656 668.4375 255.324219 665.238281 278.539062 652.976562 L 289.964844 646.941406 L 322.304688 615.535156 L 354.648438 584.125 L 372.167969 572.371094 C 381.804688 565.90625 411.714844 549.820312 438.632812 536.621094 C 506.855469 503.167969 525.914062 489.839844 535.054688 469.171875 L 538.722656 460.882812 L 537.402344 430.835938 L 531.726562 418.832031 C 528.605469 412.230469 518.703125 395.199219 509.71875 380.988281 C 490.570312 350.707031 480.625 330.300781 475.300781 310.394531 L 471.457031 296.019531 L 471.316406 274.777344 L 471.175781 253.542969 L 475.230469 239.164062 C 481.136719 218.226562 491.101562 199.835938 513.472656 168.585938 C 540.5 130.828125 546.316406 117.402344 543.089844 100.207031 L 541.824219 93.460938 L 534.164062 85.148438 C 524.320312 74.46875 516.183594 70.460938 477.140625 57.074219 C 429.601562 40.773438 400.167969 25.980469 350.277344 -6.347656 Z M 680.253906 -6.347656 L 682.011719 -2.929688 C 690.871094 14.265625 713.980469 28.464844 756.46875 42.824219 C 762.3125 44.800781 768.410156 46.507812 774.359375 48.351562 L 774.359375 39.824219 C 769.65625 38.335938 764.789062 37 760.144531 35.429688 C 718.699219 21.425781 697.363281 8.789062 689.589844 -6.347656 Z M -6.339844 51.183594 L -6.339844 60.59375 C 5.136719 67.855469 16.636719 73.132812 28.773438 76.507812 L 40.628906 79.800781 L 71.101562 79.867188 L 101.574219 79.9375 L 136.664062 73.542969 L 171.753906 67.152344 L 197.609375 67.125 C 233.65625 67.09375 257.757812 72.980469 296.171875 91.171875 C 347.675781 115.558594 374.550781 141.835938 382.132812 175.226562 C 383.609375 181.722656 385.730469 202.304688 386.847656 220.957031 C 389.742188 269.292969 398.183594 316.078125 411.808594 359.289062 C 424.375 399.144531 426.335938 417.535156 419.871094 434.90625 L 415.890625 445.597656 L 404.53125 456.675781 C 392.015625 468.886719 372.632812 480.914062 347.203125 492.246094 C 311.714844 508.0625 247.226562 529.253906 219.773438 534.121094 C 174.347656 542.171875 160.5625 538.367188 117.273438 505.839844 L 92.34375 487.105469 L 70.179688 476.160156 C 58.433594 470.355469 25.722656 456.546875 -6.339844 443.488281 L -6.339844 452.363281 C 24.488281 464.957031 55.207031 477.972656 66.488281 483.546875 L 88.648438 494.496094 L 113.582031 513.226562 C 142.824219 535.199219 155.589844 541.734375 174.527344 544.414062 L 188.378906 546.378906 L 205.921875 544.289062 C 226.050781 541.894531 248.289062 536.40625 281.480469 525.632812 C 369.449219 497.082031 415.742188 469.328125 427.414062 438.132812 L 431.238281 427.914062 L 431.238281 414.59375 C 431.207031 400.875 427.082031 380.5625 419.210938 355.597656 C 405.585938 312.386719 397.144531 265.601562 394.25 217.265625 C 393.132812 198.609375 391.011719 178.03125 389.535156 171.53125 C 381.804688 137.496094 352.277344 108.59375 299.882812 83.785156 C 260.226562 65.007812 237.589844 59.675781 197.625 59.699219 L 168.078125 59.699219 L 132.988281 66.109375 L 97.898438 72.515625 L 71.117188 72.429688 L 44.339844 72.347656 L 32.484375 69.070312 C 18.765625 65.28125 6.199219 59.609375 -6.324219 51.15625 Z M 737.976562 85.886719 C 710.25 85.332031 687.53125 90.53125 670.195312 101.460938 C 665.226562 104.589844 647.449219 116.902344 630.6875 128.816406 C 613.929688 140.730469 590.253906 157.460938 578.074219 165.996094 C 565.75 174.636719 548.136719 189.296875 538.339844 199.0625 L 520.746094 216.605469 L 514.015625 229.53125 C 510.3125 236.644531 505.789062 247.449219 503.960938 253.542969 L 500.644531 264.621094 L 500.695312 284.015625 L 500.75 303.40625 L 504.023438 314.488281 C 510.710938 337.121094 521.433594 354.785156 555.03125 398.519531 C 563.226562 409.183594 573.398438 424.867188 577.640625 433.375 L 585.347656 448.835938 L 586.066406 461.550781 L 586.785156 474.269531 L 581.878906 484.300781 C 571.890625 504.714844 549.871094 519.996094 498.644531 542.058594 C 441.421875 566.703125 425.492188 576.054688 406.535156 596.152344 L 394.476562 608.9375 L 391.617188 618.566406 C 383.4375 646.101562 392.8125 659.917969 441.164062 691.597656 C 484.464844 719.964844 498.328125 735.605469 503.121094 761.496094 L 505.15625 772.5 L 504.996094 774.355469 L 512.667969 774.355469 L 512.902344 771.75 L 510.753906 759.40625 C 505.945312 731.800781 490.375 714.019531 444.984375 684.308594 C 412.902344 663.308594 401.210938 652.410156 398.007812 640.511719 L 395.945312 632.851562 L 398.84375 622.875 L 401.746094 612.894531 L 411.957031 601.863281 C 428.714844 583.761719 446.207031 573.617188 502.335938 549.441406 C 519.601562 542.007812 539.78125 532.378906 547.175781 528.054688 C 565.277344 517.457031 583.191406 500.40625 589.261719 487.996094 L 594.125 478.054688 L 593.480469 461.6875 L 592.832031 445.320312 L 585.074219 429.765625 C 580.808594 421.214844 570.613281 405.488281 562.417969 394.824219 C 518.347656 337.460938 508.285156 316.902344 508.179688 284.015625 L 508.132812 268.316406 L 511.402344 257.234375 C 513.199219 251.140625 517.710938 240.335938 521.417969 233.226562 L 528.164062 220.296875 L 543.921875 204.601562 C 552.585938 195.964844 569.628906 181.917969 581.796875 173.382812 C 593.960938 164.851562 617.625 148.117188 634.386719 136.203125 C 651.144531 124.289062 668.925781 111.980469 673.894531 108.847656 C 698.207031 93.519531 730.957031 89.871094 774.363281 97.519531 L 774.363281 89.457031 C 761.425781 87.320312 749.277344 86.113281 737.976562 85.886719 Z M 235.46875 131.753906 L 214.230469 131.835938 L 199.457031 136.011719 C 191.328125 138.3125 169.160156 146.402344 150.191406 154 C 110.382812 169.9375 88.273438 176.019531 59.085938 179.058594 L 38.285156 181.230469 L 22.835938 179.0625 L 7.386719 176.898438 L -4.082031 171.277344 L -6.339844 170.171875 L -6.339844 179.226562 C 12.117188 187.742188 35.863281 189.902344 68.332031 185.941406 C 94.097656 182.796875 116.386719 176.398438 153.882812 161.386719 C 172.851562 153.792969 195.023438 145.714844 203.152344 143.4375 L 217.925781 139.292969 L 235.46875 139.207031 C 256.921875 139.101562 268.835938 141.820312 288.273438 151.265625 L 303.21875 158.53125 L 312.242188 167.609375 C 330.214844 185.691406 338.847656 205.480469 355.382812 266.46875 C 365.519531 303.863281 375.183594 347.21875 378.707031 371.121094 L 381.613281 390.820312 L 379.628906 401.59375 C 375.410156 424.488281 363.574219 439.792969 339.84375 453.039062 C 324.078125 461.84375 298.714844 469.832031 275.863281 473.195312 C 234.496094 479.285156 213.542969 475.773438 140.070312 450.449219 C 116.722656 442.398438 76.898438 429.847656 51.578125 422.554688 C 33.597656 417.375 12.902344 411.164062 -6.339844 405.40625 L -6.339844 413.871094 C 10.511719 418.886719 27.652344 424.050781 41.554688 428.011719 C 63.390625 434.234375 105.777344 447.550781 135.742188 457.609375 C 195.355469 477.617188 209.4375 481.09375 237.789062 482.800781 L 256.710938 483.9375 L 277.949219 480.820312 C 317.617188 475.003906 347.671875 462.019531 367.683594 442.054688 L 378.925781 430.835938 L 382.855469 420.3125 C 391.128906 398.167969 389.863281 377.671875 376.558594 318.460938 C 362.332031 255.136719 346.164062 202.285156 335.46875 184.117188 C 331.765625 177.828125 323.886719 167.867188 317.960938 161.980469 L 307.1875 151.277344 L 292.105469 143.949219 C 271.753906 134.058594 260.589844 131.652344 235.472656 131.753906 Z M 720.570312 167.757812 L 702.871094 169.589844 C 653.917969 174.652344 598.703125 198.886719 570.433594 227.714844 L 559.039062 239.339844 L 544.921875 267.902344 L 544.203125 285.863281 L 543.480469 303.824219 L 546.613281 314.601562 C 553.332031 337.710938 563.257812 352.738281 599.917969 395.300781 C 626.8125 426.527344 640.433594 445.476562 649.578125 464.398438 L 656.871094 479.496094 L 657.882812 490.648438 L 658.894531 501.804688 L 653.933594 511.941406 C 645.554688 529.070312 627.773438 542.902344 576.730469 571.992188 C 545.597656 589.738281 534.984375 597.21875 528.066406 606.289062 L 522.960938 612.980469 L 522.960938 628.859375 L 527.082031 634.648438 C 531.976562 641.523438 544.953125 649.488281 556.6875 652.828125 C 561.84375 654.292969 570.898438 654.914062 579.953125 654.421875 L 594.777344 653.617188 L 606.835938 649.242188 C 643.808594 635.820312 683.34375 604.414062 720.507812 558.9375 C 738.539062 536.867188 750.980469 523.558594 774.359375 506.359375 L 774.359375 496.476562 C 747.246094 515.972656 733.292969 530.554688 713.0625 555.328125 C 677.835938 598.460938 639.628906 628.609375 603.632812 641.675781 C 590.195312 646.554688 571.816406 648.429688 561.867188 645.9375 C 544.496094 641.582031 530.960938 630.898438 530.960938 621.539062 C 530.960938 609.863281 540.289062 602.171875 586.367188 575.847656 C 633.132812 549.132812 652.578125 533.511719 661.328125 515.621094 L 666.25 505.558594 L 664.5625 476.441406 L 657.117188 461.027344 C 647.824219 441.789062 634.316406 422.96875 607.304688 391.609375 C 570.625 349.019531 560.722656 334.023438 553.984375 310.855469 L 550.839844 300.027344 L 551.671875 285.613281 L 552.507812 271.199219 L 559.480469 257.09375 L 566.453125 242.984375 L 576.984375 232.453125 C 600.53125 208.902344 648.054688 186.671875 691.902344 178.691406 C 698.355469 177.515625 711.535156 176.589844 721.1875 176.632812 L 738.730469 176.714844 L 752.820312 180.367188 C 759.210938 182.023438 766.273438 184.726562 774.359375 188.328125 L 774.359375 179.117188 C 760.820312 173.464844 750.222656 171.136719 735.9375 169.507812 Z M 236.84375 199.167969 C 216.105469 197.960938 189.675781 202.933594 145.894531 214.730469 C 75.449219 233.710938 26.289062 241.570312 -6.339844 239.128906 L -6.339844 246.710938 C -2.46875 246.929688 1.601562 247.046875 5.9375 247.050781 C 41.710938 247.097656 84.351562 239.699219 149.589844 222.117188 C 218.738281 203.488281 238.941406 202.308594 266.867188 215.285156 L 277.023438 220.003906 L 289.949219 233.078125 C 309.523438 252.878906 322.773438 278.144531 332.632812 314.488281 L 337.640625 332.957031 L 337.800781 357.886719 L 337.964844 382.820312 L 333.613281 392.449219 C 324.96875 411.566406 305.296875 424.9375 277.316406 430.71875 C 262.382812 433.800781 234.277344 434.199219 216.320312 431.574219 C 192.761719 428.136719 131.082031 410.9375 20.3125 376.929688 C 6.8125 372.78125 3.289062 371.828125 -6.34375 368.902344 L -6.34375 377.292969 C 12.152344 383.019531 35.796875 390.261719 54.609375 395.816406 C 77.386719 402.542969 112.234375 412.882812 132.039062 418.792969 C 151.847656 424.703125 178.027344 431.800781 190.214844 434.566406 L 212.375 439.59375 L 238.324219 440.535156 L 264.273438 441.480469 L 279.550781 438.382812 C 287.957031 436.679688 299.367188 433.28125 304.910156 430.828125 C 318.210938 424.949219 335.476562 408.339844 341.011719 396.101562 L 345.347656 386.511719 L 345.203125 357.886719 L 345.0625 329.261719 L 340.027344 310.792969 C 329.804688 273.261719 316.941406 249.21875 295.480469 227.527344 L 280.703125 212.597656 L 270.546875 207.886719 C 259.679688 202.847656 249.28125 199.894531 236.835938 199.167969 Z M 703.710938 219.585938 C 699.3125 219.539062 694.765625 219.660156 689.929688 219.917969 C 666.78125 221.144531 652.972656 224.507812 634.933594 233.3125 C 617.808594 241.671875 603.417969 254.90625 595.464844 269.605469 L 589.164062 281.246094 L 589.164062 298.789062 L 589.136719 316.332031 L 595.246094 329.261719 C 603.988281 347.75 617.429688 364.378906 647.625 394.0625 C 685.726562 431.519531 706.695312 445.855469 731.179688 451.183594 C 745.441406 454.285156 749.136719 454.363281 766.519531 451.945312 C 769 451.601562 771.71875 450.957031 774.359375 450.410156 L 774.359375 442.296875 C 770.375 443.238281 766.472656 444.054688 762.820312 444.5625 C 755.011719 445.648438 748.054688 446.46875 747.367188 446.390625 C 746.679688 446.308594 741.058594 445.140625 734.871094 443.796875 C 710.777344 438.554688 689.441406 424.117188 653.160156 388.515625 C 624.730469 360.613281 611.222656 343.773438 602.679688 325.566406 L 596.617188 312.640625 L 596.644531 298.789062 L 596.644531 284.9375 L 602.914062 273.265625 C 610.550781 259.042969 621.582031 249.015625 638.871094 240.578125 C 655.46875 232.476562 669.964844 228.722656 689.902344 227.347656 C 715.644531 225.578125 735.210938 229.464844 774.359375 247.144531 L 774.359375 238.0625 C 743.464844 224.335938 725.324219 219.820312 703.710938 219.585938 Z M 225.304688 255.445312 L 182.828125 255.828125 L 163.433594 259.855469 C 138.386719 265.0625 92.820312 280.210938 73.472656 289.769531 C 64.449219 294.226562 55.660156 300.191406 51.773438 304.496094 L 45.238281 311.726562 L 45.269531 318.648438 C 45.269531 333.199219 56.847656 343.914062 90.507812 360.554688 C 120.433594 375.351562 164.246094 389.546875 198.546875 395.558594 C 201.09375 396.003906 213.964844 396.15625 227.164062 395.890625 L 251.175781 395.414062 L 261.476562 391.410156 C 275.035156 386.144531 285.75 376.730469 291.640625 364.910156 L 296.421875 355.316406 L 296.421875 325.035156 L 292.71875 313.296875 C 287.757812 297.582031 277.375 283.113281 263.449219 272.507812 L 251.976562 263.769531 L 238.648438 259.605469 Z M 223.464844 263.214844 L 235.582031 267.117188 C 267.347656 277.347656 289.027344 306.972656 289.027344 340.144531 L 289.027344 351.621094 L 284.21875 361.269531 C 278.695312 372.351562 271.210938 378.710938 257.277344 384.148438 L 247.472656 387.976562 L 227.15625 388.488281 C 204.949219 389.042969 205.390625 389.09375 180.0625 383.46875 C 129.003906 372.132812 63.582031 342.3125 55.503906 326.6875 C 51.597656 319.136719 51.867188 316.601562 57.25 310.207031 C 66.988281 298.632812 124.960938 275.976562 167.136719 267.265625 L 186.527344 263.261719 L 204.996094 263.234375 Z M 713.074219 276.148438 L 700.039062 277.171875 C 685.390625 278.320312 676.335938 281.578125 667.773438 288.785156 C 659.46875 295.769531 656.523438 302.597656 656.550781 314.859375 L 656.582031 325.566406 L 661.269531 335.640625 L 665.960938 345.714844 L 681.171875 360.574219 C 698.027344 377.039062 712.085938 386.183594 730.3125 392.542969 L 742.421875 396.769531 L 762.738281 396.207031 L 774.371094 395.886719 L 774.371094 387.851562 C 769.382812 388.640625 763.882812 389.253906 759.195312 389.234375 L 746.140625 389.1875 L 734.03125 385.058594 C 716.535156 379.09375 702.027344 369.867188 686.738281 354.980469 L 673.320312 341.914062 L 668.65625 331.894531 C 666.078125 326.351562 664.003906 318.488281 663.976562 314.296875 L 663.945312 306.722656 L 668.101562 300.585938 C 673.304688 292.894531 685.875 286.429688 698.8125 284.789062 L 708.742188 283.53125 L 724.257812 286.578125 C 740.761719 289.820312 758.710938 297.023438 774.371094 305.882812 L 774.371094 296.613281 C 759.6875 288.683594 743.601562 282.332031 728.40625 279.253906 Z M 774.359375 576.234375 L 766.53125 585.972656 L 719.117188 633.066406 C 667.65625 684.175781 656.859375 696.496094 649.042969 713.023438 C 639.71875 732.738281 639.753906 746.355469 651.472656 774.355469 L 660.621094 774.355469 C 655.996094 763.667969 651.996094 753.675781 651.195312 749.816406 L 649.167969 740.058594 L 651.050781 731.671875 C 656.050781 709.359375 665.875 697.003906 726.523438 636.757812 L 773.9375 589.664062 L 774.359375 589.136719 Z M 774.359375 631.378906 C 772.882812 632.988281 771.898438 634.097656 770.332031 635.800781 C 724.105469 686.082031 711.917969 707.074219 711.972656 736.363281 C 712 748.410156 713.515625 756.699219 720.304688 774.355469 L 729.371094 774.355469 C 718.59375 746.644531 717.300781 734.902344 722.265625 717.890625 C 727.824219 698.851562 741.503906 679.367188 774.359375 643.253906 Z M 126.570312 707.453125 C 72.75 709.378906 22.347656 723.886719 -6.34375 746.085938 L -6.34375 756.710938 C 26.136719 727.105469 110.695312 707.796875 171.84375 716.304688 C 199.144531 720.101562 216.722656 727.566406 225.140625 738.9375 L 229.003906 744.15625 L 228.929688 754.636719 L 228.859375 765.113281 L 223.824219 774.355469 L 232.460938 774.355469 C 240.011719 757.59375 239 742.253906 228.566406 730.703125 C 220.332031 721.589844 211.675781 717.050781 193.304688 712.21875 L 179.140625 708.492188 L 151.371094 707.464844 C 143.070312 707.15625 134.78125 707.160156 126.570312 707.464844 Z M 126.570312 707.453125 " fill-opacity="1" fill-rule="nonzero"/></g></g></g></g></svg>