<svg xmlns="http://www.w3.org/2000/svg" xmlns:xlink="http://www.w3.org/1999/xlink" width="1024" zoomAndPan="magnify" viewBox="0 0 768 767.999994" height="1024" preserveAspectRatio="xMidYMid meet" version="1.0"><defs><filter x="0%" y="0%" width="100%" height="100%" id="0a1ba7e409"><feColorMatrix values="0 0 0 0 1 0 0 0 0 1 0 0 0 0 1 0 0 0 1 0" color-interpolation-filters="sRGB"/></filter><mask id="cbc450a382"><g filter="url(#0a1ba7e409)"><rect x="-76.8" width="921.6" fill="#000000" y="-76.799999" height="921.599993" fill-opacity="0.33"/></g></mask><clipPath id="5984d28f98"><path d="M 0 557 L 768 557 L 768 768 L 0 768 Z M 0 557 " clip-rule="nonzero"/></clipPath><clipPath id="189ea2a6df"><path d="M 0 0 L 487 0 L 487 424 L 0 424 Z M 0 0 " clip-rule="nonzero"/></clipPath><clipPath id="8c6cbff494"><path d="M 0 204 L 768 204 L 768 602 L 0 602 Z M 0 204 " clip-rule="nonzero"/></clipPath><clipPath id="3b6bbce85e"><path d="M 0 88 L 768 88 L 768 505 L 0 505 Z M 0 88 " clip-rule="nonzero"/></clipPath><clipPath id="aa01cf0250"><path d="M 0 80 L 133 80 L 133 292 L 0 292 Z M 0 80 " clip-rule="nonzero"/></clipPath><clipPath id="7a14801763"><path d="M 0 156 L 79 156 L 79 242 L 0 242 Z M 0 156 " clip-rule="nonzero"/></clipPath><clipPath id="c8054783cc"><path d="M 0 0 L 376 0 L 376 269 L 0 269 Z M 0 0 " clip-rule="nonzero"/></clipPath><clipPath id="0bd1f5670d"><path d="M 120 0 L 282 0 L 282 75 L 120 75 Z M 120 0 " clip-rule="nonzero"/></clipPath><clipPath id="a6a3ecf9ab"><path d="M 449 0 L 768 0 L 768 144 L 449 144 Z M 449 0 " clip-rule="nonzero"/></clipPath><clipPath id="bb7d64c20d"><path d="M 648 0 L 768 0 L 768 53 L 648 53 Z M 648 0 " clip-rule="nonzero"/></clipPath><clipPath id="e5d6142769"><rect x="0" width="768" y="0" height="768"/></clipPath></defs><rect x="-76.8" width="921.6" fill="#ffffff" y="-76.799999" height="921.599993" fill-opacity="1"/><rect x="-76.8" width="921.6" fill="#ffffff" y="-76.799999" height="921.599993" fill-opacity="1"/><g mask="url(#cbc450a382)"><g transform="matrix(1, 0, 0, 1, 0, -0.000000000000057351)"><g clip-path="url(#e5d6142769)"><g clip-path="url(#5984d28f98)"><path fill="#000000" d="M 368.722656 557.605469 C 368.308594 557.605469 367.894531 557.613281 367.484375 557.621094 C 367.378906 557.621094 367.273438 557.621094 367.167969 557.621094 C 354.703125 557.621094 342.140625 561.738281 329.480469 569.96875 C 322.828125 572.429688 300.679688 593.570312 263.03125 633.382812 C 254.027344 640.53125 245.046875 644.453125 236.097656 645.152344 C 235.511719 645.171875 234.925781 645.183594 234.335938 645.183594 C 221.226562 645.183594 207.40625 640.089844 192.875 629.90625 L 133.152344 570.621094 C 132.976562 570.449219 132.777344 570.304688 132.558594 570.191406 C 128.039062 567.855469 123.160156 566.6875 117.929688 566.6875 C 110.164062 566.6875 101.613281 569.265625 92.285156 574.417969 L 92.265625 574.425781 C 70.15625 586.867188 51.34375 607.535156 35.824219 636.421875 C 27.46875 647.023438 18.976562 680.6875 10.351562 737.410156 C 7.683594 745.488281 4.230469 752.816406 -0.0117188 759.390625 L -0.0117188 767.617188 C -0.0117188 767.660156 0 767.703125 0.0117188 767.742188 C 6.402344 759.367188 11.394531 749.691406 14.996094 738.714844 C 15.039062 738.585938 15.070312 738.457031 15.089844 738.324219 C 23.644531 682.007812 31.855469 648.988281 39.722656 639.265625 C 39.816406 639.148438 39.902344 639.019531 39.972656 638.886719 C 55.066406 610.734375 73.277344 590.648438 94.613281 578.636719 C 103.199219 573.898438 110.96875 571.527344 117.921875 571.527344 C 122.273438 571.527344 126.308594 572.457031 130.023438 574.3125 L 189.621094 633.472656 C 189.71875 633.570312 189.820312 633.65625 189.933594 633.734375 C 205.359375 644.582031 220.15625 650.003906 234.332031 650.003906 C 234.996094 650.003906 235.660156 649.992188 236.320312 649.96875 C 236.355469 649.96875 236.386719 649.964844 236.421875 649.964844 C 246.414062 649.195312 256.332031 644.890625 266.171875 637.046875 C 266.257812 636.976562 266.34375 636.898438 266.421875 636.816406 C 304.367188 596.679688 325.953125 575.898438 331.171875 574.480469 C 331.414062 574.414062 331.644531 574.3125 331.859375 574.171875 C 343.808594 566.351562 355.578125 562.441406 367.167969 562.441406 C 367.277344 562.441406 367.382812 562.441406 367.492188 562.445312 C 367.5 562.445312 367.503906 562.445312 367.507812 562.445312 C 367.53125 562.445312 367.550781 562.445312 367.570312 562.441406 C 367.953125 562.433594 368.339844 562.429688 368.726562 562.429688 C 376.882812 562.429688 386.058594 564.621094 396.25 569.011719 L 467.921875 614.570312 C 467.984375 614.613281 468.046875 614.648438 468.113281 614.683594 C 481.207031 621.402344 496.011719 625.917969 512.527344 628.238281 L 512.566406 628.242188 C 518.695312 629.007812 524.816406 629.386719 530.933594 629.386719 C 541.066406 629.386719 551.179688 628.339844 561.273438 626.246094 C 561.375 626.222656 561.480469 626.195312 561.582031 626.160156 C 619.222656 605.894531 653.164062 595.765625 663.410156 595.765625 C 663.84375 595.765625 664.230469 595.78125 664.578125 595.816406 C 664.664062 595.828125 664.746094 595.832031 664.828125 595.832031 C 664.925781 595.832031 665.027344 595.824219 665.125 595.8125 C 668.203125 595.429688 671.328125 595.234375 674.503906 595.234375 C 690.167969 595.234375 707.027344 599.910156 725.078125 609.257812 C 725.125 609.28125 725.175781 609.304688 725.226562 609.328125 C 740.898438 616.117188 755.144531 624.820312 767.96875 635.4375 L 767.96875 629.214844 L 767.972656 629.21875 L 767.976562 629.21875 L 767.96875 629.214844 L 767.976562 629.21875 C 755.648438 619.472656 742.074219 611.382812 727.253906 604.953125 L 727.25 604.953125 C 708.519531 595.261719 690.941406 590.414062 674.511719 590.414062 C 671.222656 590.414062 667.980469 590.609375 664.785156 590.996094 C 664.460938 590.972656 664.105469 590.960938 663.726562 590.960938 C 652.699219 590.960938 618.164062 601.160156 560.128906 621.558594 C 550.414062 623.5625 540.679688 624.566406 530.929688 624.566406 C 525.027344 624.566406 519.117188 624.199219 513.199219 623.464844 C 497.269531 621.226562 483.011719 616.890625 470.429688 610.453125 L 398.667969 564.835938 C 398.558594 564.769531 398.445312 564.707031 398.332031 564.660156 C 387.460938 559.957031 377.59375 557.605469 368.722656 557.605469 Z M 368.722656 557.605469 " fill-opacity="1" fill-rule="nonzero"/></g><path fill="#000000" d="M 355.398438 640.464844 C 347.617188 640.464844 340.839844 642.988281 335.074219 648.035156 C 334.988281 648.109375 334.910156 648.191406 334.835938 648.277344 C 307.550781 679.941406 292.085938 696.347656 288.441406 697.496094 C 288.105469 697.566406 287.789062 697.703125 287.511719 697.90625 C 277.550781 705.125 267.101562 709.972656 256.167969 712.4375 C 249.773438 713.800781 242.875 714.480469 235.464844 714.480469 C 230.015625 714.480469 224.292969 714.109375 218.292969 713.375 C 218.195312 713.363281 218.097656 713.355469 218 713.355469 C 217.964844 713.355469 217.929688 713.359375 217.890625 713.359375 C 217.710938 713.367188 217.519531 713.371094 217.316406 713.371094 C 208.964844 713.371094 183.128906 706.308594 139.808594 692.183594 C 139.714844 692.152344 139.617188 692.128906 139.519531 692.109375 C 134.628906 691.160156 130.074219 690.683594 125.863281 690.683594 C 119.851562 690.683594 114.535156 691.652344 109.914062 693.585938 C 97.375 693.824219 82.125 718.621094 64.15625 767.972656 L 69.171875 767.972656 C 85.933594 721.59375 99.542969 698.40625 109.996094 698.40625 C 110.09375 698.40625 110.195312 698.40625 110.292969 698.410156 C 110.328125 698.414062 110.363281 698.414062 110.394531 698.414062 C 110.730469 698.414062 111.058594 698.34375 111.363281 698.210938 C 115.484375 696.40625 120.316406 695.503906 125.855469 695.503906 C 129.714844 695.503906 133.914062 695.941406 138.457031 696.8125 C 182.171875 711.066406 208.503906 718.191406 217.457031 718.191406 C 217.609375 718.191406 217.753906 718.1875 217.898438 718.183594 C 224.019531 718.929688 229.875 719.300781 235.464844 719.300781 C 243.222656 719.300781 250.46875 718.582031 257.199219 717.148438 L 257.226562 717.140625 C 268.679688 714.558594 279.601562 709.53125 289.992188 702.058594 C 294.6875 700.371094 310.8125 683.539062 338.367188 651.5625 C 343.199219 647.378906 348.882812 645.285156 355.417969 645.285156 C 355.722656 645.285156 356.027344 645.289062 356.335938 645.300781 C 361.195312 645.535156 366.710938 647.339844 372.886719 650.710938 C 399.277344 669.738281 418.203125 681.457031 429.664062 685.855469 C 443.429688 691.742188 459.3125 695.632812 477.3125 697.53125 C 482.605469 698.121094 487.851562 698.414062 493.046875 698.414062 C 503.207031 698.414062 513.183594 697.285156 522.96875 695.03125 C 527.382812 694.882812 550.996094 686.824219 593.808594 670.863281 C 596.09375 670.542969 598.40625 670.382812 600.742188 670.382812 C 606.457031 670.382812 612.316406 671.34375 618.320312 673.269531 L 618.316406 673.269531 L 700.125 722.214844 L 700.117188 722.214844 C 700.179688 722.273438 700.25 722.332031 700.316406 722.390625 C 703.3125 724.851562 725.863281 732.851562 767.96875 746.386719 L 767.96875 741.332031 L 767.976562 741.332031 L 767.96875 741.332031 C 727.789062 728.417969 706.28125 720.882812 703.445312 718.71875 L 703.441406 718.71875 C 703.277344 718.527344 703.082031 718.367188 702.863281 718.234375 L 620.550781 668.988281 C 620.394531 668.894531 620.230469 668.820312 620.058594 668.761719 C 613.480469 666.625 607.042969 665.558594 600.75 665.558594 C 598.097656 665.558594 595.46875 665.75 592.867188 666.128906 C 592.699219 666.152344 592.53125 666.195312 592.371094 666.253906 C 549.542969 682.226562 526.386719 690.210938 522.90625 690.210938 C 522.898438 690.210938 522.890625 690.210938 522.886719 690.210938 C 522.824219 690.207031 522.765625 690.203125 522.707031 690.203125 C 522.523438 690.203125 522.339844 690.226562 522.160156 690.269531 C 512.644531 692.484375 502.9375 693.59375 493.042969 693.59375 C 488.019531 693.59375 482.949219 693.308594 477.832031 692.734375 L 477.816406 692.734375 C 460.273438 690.886719 444.832031 687.105469 431.492188 681.394531 C 431.464844 681.382812 431.4375 681.371094 431.40625 681.359375 C 420.324219 677.109375 401.710938 665.558594 375.574219 646.707031 C 375.496094 646.648438 375.410156 646.59375 375.324219 646.546875 C 368.441406 642.773438 362.175781 640.75 356.539062 640.484375 L 356.496094 640.480469 C 356.128906 640.46875 355.761719 640.464844 355.398438 640.464844 Z M 355.398438 640.464844 " fill-opacity="1" fill-rule="nonzero"/><path fill="#000000" d="M 387.800781 719.664062 C 384.589844 719.664062 381.402344 720.046875 378.230469 720.8125 C 373.015625 721.105469 353.144531 728.726562 318.609375 743.679688 C 312.046875 746.117188 304.640625 748.269531 296.386719 750.140625 C 296.359375 750.148438 296.328125 750.15625 296.300781 750.164062 C 281.632812 754.066406 249.773438 757.644531 200.714844 760.894531 C 200.65625 760.898438 200.601562 760.902344 200.546875 760.910156 C 188.640625 762.539062 178.820312 764.441406 171.078125 766.621094 C 169.4375 767.035156 167.8125 767.484375 166.203125 767.972656 L 186.855469 767.972656 L 166.25 767.972656 L 186.859375 767.972656 C 191.203125 767.164062 195.957031 766.40625 201.113281 765.699219 C 250.382812 762.433594 282.507812 758.8125 297.488281 754.835938 C 305.964844 752.910156 313.589844 750.691406 320.355469 748.171875 C 320.398438 748.160156 320.4375 748.144531 320.476562 748.125 C 355.117188 733.125 374.445312 725.625 378.449219 725.625 C 378.472656 725.625 378.492188 725.625 378.507812 725.625 C 378.523438 725.625 378.539062 725.625 378.554688 725.625 C 378.753906 725.625 378.949219 725.601562 379.136719 725.554688 C 382 724.84375 384.886719 724.488281 387.796875 724.488281 C 391.566406 724.488281 395.375 725.085938 399.222656 726.28125 C 446.550781 747.113281 476.519531 757.78125 489.132812 758.277344 C 491.207031 758.917969 494.753906 759.242188 499.78125 759.242188 C 513.507812 759.242188 538.246094 756.847656 573.988281 752.0625 C 574.484375 752.050781 574.972656 752.046875 575.464844 752.046875 C 583.527344 752.046875 590.914062 753.445312 597.617188 756.25 L 597.613281 756.25 C 603.339844 759.773438 608.753906 763.679688 613.855469 767.972656 L 621.179688 767.972656 C 614.644531 762.011719 607.574219 756.699219 599.96875 752.035156 C 599.863281 751.972656 599.757812 751.917969 599.644531 751.871094 C 592.300781 748.773438 584.242188 747.226562 575.464844 747.226562 C 574.898438 747.226562 574.328125 747.230469 573.753906 747.246094 C 573.664062 747.246094 573.574219 747.253906 573.488281 747.265625 C 537.320312 752.109375 512.757812 754.53125 499.800781 754.53125 C 495.199219 754.53125 492.058594 754.226562 490.382812 753.613281 C 490.136719 753.527344 489.878906 753.476562 489.617188 753.46875 C 477.847656 753.183594 448.320312 742.628906 401.03125 721.808594 C 400.949219 721.773438 400.867188 721.742188 400.78125 721.714844 C 396.417969 720.347656 392.089844 719.664062 387.800781 719.664062 Z M 387.800781 719.664062 " fill-opacity="1" fill-rule="nonzero"/><path fill="#000000" d="M 767.964844 287.601562 C 762.898438 292.0625 759.171875 294.292969 756.785156 294.292969 C 756.613281 294.292969 756.449219 294.28125 756.292969 294.261719 C 756.175781 294.242188 756.058594 294.234375 755.941406 294.234375 C 755.59375 294.234375 755.246094 294.3125 754.925781 294.460938 C 744.511719 299.300781 731.355469 303.34375 715.457031 306.585938 L 715.449219 306.585938 C 640.683594 316.945312 598.765625 324.347656 589.695312 328.789062 L 589.691406 328.789062 C 560.691406 337.109375 535.105469 349.832031 512.941406 366.960938 C 512.902344 366.992188 512.863281 367.023438 512.824219 367.054688 C 459.398438 413.972656 442.171875 460.125 461.144531 505.511719 C 468.074219 526.058594 488.949219 537.785156 523.78125 540.695312 C 534.546875 542.007812 544.417969 542.664062 553.394531 542.664062 C 556.929688 542.664062 560.324219 542.5625 563.578125 542.359375 C 563.84375 542.386719 564.15625 542.398438 564.523438 542.398438 C 570.929688 542.398438 593.226562 538.285156 631.421875 530.054688 L 631.417969 530.054688 C 634.222656 529.699219 637.011719 529.523438 639.789062 529.523438 C 645.539062 529.523438 651.226562 530.28125 656.855469 531.800781 C 656.875 531.804688 656.894531 531.808594 656.914062 531.816406 C 663.382812 533.378906 670.355469 536.347656 677.835938 540.714844 L 677.828125 540.71875 C 711.121094 564.222656 730.722656 576.734375 736.640625 578.25 L 736.632812 578.25 C 746.566406 582.5 757.011719 585.878906 767.96875 588.386719 L 767.96875 583.4375 L 767.976562 583.4375 L 767.96875 583.4375 L 767.972656 583.4375 C 757.617188 581.007812 747.742188 577.773438 738.339844 573.738281 C 738.199219 573.675781 738.054688 573.628906 737.90625 573.597656 C 732.910156 572.496094 713.777344 560.199219 680.5 536.699219 C 680.445312 536.660156 680.386719 536.625 680.328125 536.589844 C 672.445312 531.976562 665.039062 528.828125 658.113281 527.144531 C 652.070312 525.515625 645.964844 524.703125 639.792969 524.703125 C 636.785156 524.703125 633.761719 524.894531 630.71875 525.28125 C 630.652344 525.292969 630.582031 525.304688 630.515625 525.316406 C 592.382812 533.535156 570.578125 537.644531 565.101562 537.644531 C 564.691406 537.644531 564.375 537.621094 564.148438 537.578125 C 563.992188 537.542969 563.828125 537.527344 563.667969 537.527344 C 563.613281 537.527344 563.5625 537.53125 563.511719 537.53125 C 560.28125 537.738281 556.910156 537.84375 553.390625 537.84375 C 544.601562 537.84375 534.90625 537.195312 524.308594 535.902344 C 524.277344 535.898438 524.246094 535.894531 524.214844 535.894531 C 491.40625 533.160156 471.894531 522.484375 465.675781 503.863281 C 465.65625 503.804688 465.636719 503.75 465.613281 503.695312 C 447.511719 460.449219 464.28125 416.132812 515.925781 370.75 C 537.648438 353.964844 562.753906 341.503906 591.242188 333.363281 C 591.394531 333.316406 591.542969 333.257812 591.683594 333.1875 C 599.796875 329.007812 641.304688 321.726562 716.207031 311.347656 C 716.257812 311.339844 716.304688 311.332031 716.355469 311.320312 C 732.378906 308.058594 745.730469 303.980469 756.414062 299.082031 L 756.40625 299.082031 C 759.15625 299.050781 763.007812 297.074219 767.964844 293.148438 L 767.96875 293.152344 L 767.96875 287.601562 Z M 767.964844 287.601562 " fill-opacity="1" fill-rule="nonzero"/><path fill="#000000" d="M 767.964844 372.777344 C 767.695312 372.933594 767.425781 373.09375 767.152344 373.253906 L 767.148438 373.253906 C 758.476562 377.445312 748.730469 380.765625 737.914062 383.214844 C 726.34375 385.84375 714.464844 387.390625 702.285156 387.855469 L 702.28125 387.855469 L 623.363281 388.492188 C 623.304688 388.492188 623.246094 388.492188 623.1875 388.496094 C 608.664062 389.675781 596.855469 391.960938 587.753906 395.359375 C 587.726562 395.371094 587.699219 395.378906 587.675781 395.390625 C 557.203125 407.988281 542.457031 426.550781 543.441406 451.078125 C 543.445312 451.207031 543.464844 451.339844 543.488281 451.46875 C 546.613281 466.59375 557.46875 475.359375 576.058594 477.769531 C 578.636719 478.15625 581.695312 478.347656 585.238281 478.347656 C 589.445312 478.347656 594.328125 478.078125 599.886719 477.53125 C 599.941406 477.527344 599.996094 477.519531 600.050781 477.511719 C 634.230469 471.789062 653.238281 468.925781 657.078125 468.925781 C 657.136719 468.925781 657.195312 468.925781 657.246094 468.925781 L 657.242188 468.929688 C 657.511719 469.03125 657.804688 469.089844 658.109375 469.089844 C 658.148438 469.089844 658.183594 469.089844 658.222656 469.085938 C 660.035156 469.003906 661.824219 468.964844 663.578125 468.964844 C 673.273438 468.964844 682.039062 470.21875 689.878906 472.726562 L 689.910156 472.734375 C 698.363281 475.320312 707.050781 479.3125 715.96875 484.707031 L 715.960938 484.707031 C 736.519531 500.585938 753.855469 513.105469 767.96875 522.269531 L 767.96875 516.527344 L 767.976562 516.527344 L 767.96875 516.527344 L 767.976562 516.527344 C 754.480469 507.617188 738.082031 495.703125 718.78125 480.792969 C 718.710938 480.734375 718.632812 480.683594 718.554688 480.636719 C 709.273438 475.015625 700.207031 470.847656 691.347656 468.132812 C 683.03125 465.472656 673.773438 464.140625 663.578125 464.140625 C 661.9375 464.140625 660.269531 464.175781 658.582031 464.246094 C 658.40625 464.203125 658.214844 464.167969 658.015625 464.148438 C 657.863281 464.132812 657.671875 464.125 657.441406 464.125 C 653.011719 464.125 633.640625 466.996094 599.332031 472.742188 L 599.328125 472.742188 C 593.9375 473.269531 589.242188 473.53125 585.234375 473.53125 C 581.929688 473.53125 579.09375 473.351562 576.726562 472.996094 L 576.679688 472.988281 C 560.449219 470.886719 550.976562 463.457031 548.257812 450.707031 C 547.441406 428.527344 561.167969 411.585938 589.441406 399.878906 C 598.105469 396.644531 609.449219 394.453125 623.484375 393.3125 L 702.363281 392.675781 C 702.386719 392.675781 702.410156 392.675781 702.433594 392.675781 C 714.925781 392.199219 727.105469 390.613281 738.976562 387.914062 C 749.625 385.503906 759.289062 382.269531 767.964844 378.203125 L 767.96875 378.203125 L 767.96875 372.777344 Z M 655.789062 467.324219 C 655.980469 468.011719 656.460938 468.566406 657.085938 468.859375 C 656.414062 468.660156 655.976562 468.144531 655.785156 467.324219 Z M 655.789062 467.324219 " fill-opacity="1" fill-rule="nonzero"/><path fill="#000000" d="M 738.941406 420.578125 C 734.101562 420.578125 729.496094 421.015625 725.128906 421.894531 C 725.054688 421.90625 724.984375 421.925781 724.914062 421.945312 C 711.699219 425.875 706.300781 431.914062 708.722656 440.058594 C 709.464844 442.554688 711.007812 445.1875 713.347656 447.957031 C 713.378906 447.992188 713.40625 448.027344 713.4375 448.058594 C 720.558594 455.589844 729.867188 461.542969 741.355469 465.917969 C 746.746094 468.089844 755.617188 470.148438 767.96875 472.097656 L 767.96875 467.222656 L 767.976562 467.222656 L 767.96875 467.222656 L 767.972656 467.222656 C 756.375 465.371094 748.089844 463.441406 743.117188 461.429688 L 743.070312 461.410156 C 732.320312 457.320312 723.640625 451.796875 717.035156 444.847656 L 717.03125 444.847656 C 715.125 442.589844 713.894531 440.535156 713.34375 438.683594 C 711.84375 433.640625 716.121094 429.613281 726.171875 426.601562 L 726.167969 426.601562 C 730.195312 425.800781 734.453125 425.398438 738.941406 425.398438 C 740.453125 425.398438 741.992188 425.445312 743.558594 425.535156 L 743.550781 425.535156 L 767.96875 428.113281 L 767.96875 423.265625 L 743.996094 420.734375 C 743.957031 420.730469 743.921875 420.726562 743.882812 420.726562 C 742.210938 420.625 740.5625 420.578125 738.941406 420.578125 Z M 738.941406 420.578125 " fill-opacity="1" fill-rule="nonzero"/><g clip-path="url(#189ea2a6df)"><path fill="#000000" d="M 475.832031 -0.0078125 L 470.550781 -0.0078125 C 474.917969 9.359375 478.59375 19.238281 481.574219 29.625 C 479.777344 39.941406 472.078125 50.273438 458.476562 60.625 C 378.867188 102.617188 335.238281 130.542969 327.585938 144.402344 C 314.59375 153.523438 296.210938 192.839844 272.441406 262.347656 C 264.980469 275.730469 255.4375 286.894531 243.816406 295.84375 C 243.613281 296 243.4375 296.1875 243.292969 296.398438 C 238.535156 303.417969 206.839844 316.6875 148.210938 336.203125 C 147.917969 336.300781 147.648438 336.453125 147.414062 336.652344 C 108.996094 369.105469 84.097656 386.890625 72.714844 390 C 72.632812 390.023438 72.550781 390.050781 72.46875 390.082031 L -0.0117188 418.578125 L -0.0117188 423.761719 L 74.113281 394.617188 C 86.191406 391.238281 111.546875 373.242188 150.171875 340.632812 C 208.703125 321.132812 240.992188 307.40625 247.035156 299.449219 C 259.113281 290.089844 269.019531 278.441406 276.761719 264.496094 C 276.832031 264.371094 276.890625 264.242188 276.9375 264.105469 C 300.714844 194.546875 318.652344 155.871094 330.742188 148.085938 C 331.113281 147.847656 331.410156 147.515625 331.601562 147.121094 C 337.855469 134.402344 380.957031 106.957031 460.90625 64.792969 C 461.023438 64.730469 461.132812 64.660156 461.238281 64.578125 C 476.199219 53.230469 484.59375 41.652344 486.421875 29.847656 C 486.476562 29.503906 486.453125 29.152344 486.359375 28.816406 C 483.496094 18.742188 479.996094 9.132812 475.867188 -0.0078125 Z M 475.832031 -0.0078125 " fill-opacity="1" fill-rule="nonzero"/></g><g clip-path="url(#8c6cbff494)"><path fill="#000000" d="M 767.964844 204.988281 C 757.121094 210.742188 750.445312 213.617188 747.933594 213.617188 C 747.835938 213.617188 747.746094 213.613281 747.664062 213.605469 C 747.585938 213.597656 747.507812 213.59375 747.425781 213.59375 C 747.160156 213.59375 746.894531 213.640625 746.640625 213.726562 C 731.753906 218.871094 717 222.558594 702.378906 224.789062 L 702.375 224.789062 C 622.6875 231.308594 576.074219 237.417969 562.535156 243.125 C 531.34375 251.402344 500.605469 267.496094 470.328125 291.410156 C 470.304688 291.425781 470.285156 291.441406 470.265625 291.457031 C 435.003906 321.167969 413.472656 350.128906 405.675781 378.332031 C 396.441406 394.921875 403.269531 431.097656 426.15625 486.867188 C 425.378906 500.410156 419.492188 510.128906 408.5 516.019531 C 403.96875 518.359375 398.261719 519.527344 391.386719 519.527344 C 390.121094 519.527344 388.816406 519.488281 387.472656 519.410156 C 347.148438 510.210938 320.167969 505.613281 306.53125 505.613281 C 301.707031 505.613281 298.550781 506.1875 297.066406 507.339844 C 285.648438 508.078125 263.390625 524.65625 230.285156 557.078125 C 226.929688 559.265625 223.261719 560.371094 219.277344 560.394531 C 218.550781 560.398438 217.863281 560.730469 217.410156 561.296875 C 217.289062 561.445312 217.191406 561.605469 217.109375 561.773438 C 210.894531 561.664062 185.511719 550.652344 140.96875 528.730469 C 140.859375 528.675781 140.742188 528.628906 140.625 528.59375 C 131.785156 525.824219 123.789062 524.441406 116.640625 524.441406 C 113.199219 524.441406 109.953125 524.761719 106.90625 525.402344 C 97.421875 527 87.550781 531.222656 77.296875 538.070312 C 77.246094 538.109375 77.191406 538.144531 77.140625 538.1875 C 38.902344 568.433594 13.183594 587.777344 -0.0117188 596.21875 L -0.0117188 601.574219 C 13.578125 593.347656 40.265625 573.5 80.050781 542.03125 C 89.722656 535.582031 98.957031 531.621094 107.753906 530.148438 C 107.789062 530.144531 107.820312 530.136719 107.855469 530.128906 C 110.597656 529.550781 113.53125 529.257812 116.65625 529.257812 C 123.25 529.257812 130.703125 530.554688 139.007812 533.140625 C 184.234375 555.390625 210.53125 566.515625 217.898438 566.515625 C 218.285156 566.515625 218.621094 566.484375 218.902344 566.421875 C 218.925781 566.417969 218.945312 566.414062 218.96875 566.410156 C 220.019531 566.164062 220.773438 565.742188 221.234375 565.136719 C 225.511719 564.796875 229.484375 563.410156 233.144531 560.964844 C 233.269531 560.882812 233.386719 560.785156 233.496094 560.679688 C 266.527344 528.316406 287.949219 512.132812 297.765625 512.132812 C 297.859375 512.132812 297.953125 512.136719 298.046875 512.136719 C 298.074219 512.140625 298.101562 512.140625 298.125 512.140625 C 298.941406 512.140625 299.699219 511.726562 300.144531 511.046875 C 301.023438 510.261719 303.140625 509.871094 306.488281 509.871094 C 318.171875 509.871094 344.871094 514.632812 386.589844 524.15625 C 386.71875 524.183594 386.847656 524.203125 386.980469 524.210938 C 388.484375 524.304688 389.949219 524.347656 391.371094 524.347656 C 399.058594 524.347656 405.515625 522.996094 410.75 520.285156 L 410.78125 520.269531 C 423.519531 513.4375 430.261719 502.203125 430.996094 486.558594 C 431.015625 486.207031 430.953125 485.855469 430.820312 485.527344 C 408.238281 430.617188 401.300781 395.59375 410.011719 380.453125 C 410.113281 380.273438 410.191406 380.082031 410.246094 379.886719 C 417.710938 352.574219 438.734375 324.34375 473.316406 295.191406 C 503.128906 271.648438 533.339844 255.832031 563.945312 247.738281 C 564.058594 247.707031 564.171875 247.667969 564.28125 247.625 C 577.128906 242.101562 623.324219 236.089844 702.863281 229.585938 C 702.917969 229.582031 702.972656 229.574219 703.03125 229.566406 C 717.839844 227.3125 732.773438 223.59375 747.835938 218.414062 L 747.832031 218.414062 C 750.859375 218.253906 757.570312 215.5 767.964844 210.152344 L 767.96875 210.152344 L 767.96875 204.988281 Z M 216.882812 562.90625 C 216.886719 563.042969 216.90625 563.179688 216.933594 563.316406 C 216.902344 563.171875 216.886719 563.035156 216.882812 562.90625 Z M 216.882812 562.90625 " fill-opacity="1" fill-rule="nonzero"/></g><g clip-path="url(#3b6bbce85e)"><path fill="#000000" d="M 767.96875 88.667969 L 556.019531 129.453125 C 555.957031 129.464844 555.894531 129.480469 555.832031 129.496094 C 508.808594 142.503906 468.253906 161.128906 434.164062 185.371094 C 399.046875 209.488281 372.144531 236.972656 353.457031 267.824219 C 340.074219 285.164062 331.621094 324.851562 328.097656 386.890625 C 323.152344 399.078125 313.71875 409.015625 299.796875 416.699219 C 299.660156 416.773438 299.53125 416.863281 299.410156 416.964844 C 291.375 423.722656 266.714844 428.074219 225.429688 430.023438 C 224.960938 430.046875 224.511719 430.203125 224.136719 430.472656 L 171.371094 468.371094 L 92.347656 463.515625 C 92.300781 463.511719 92.25 463.511719 92.203125 463.511719 C 91.839844 463.511719 91.476562 463.59375 91.148438 463.75 C 53.804688 481.859375 23.417969 493.949219 -0.0117188 500.019531 L -0.0117188 504.867188 C 24 498.824219 54.898438 486.660156 92.683594 468.367188 L 171.933594 473.234375 C 171.980469 473.238281 172.03125 473.242188 172.082031 473.242188 C 172.585938 473.242188 173.074219 473.082031 173.488281 472.789062 L 226.367188 434.804688 C 268.015625 432.800781 293.335938 428.136719 302.324219 420.8125 C 317.28125 412.507812 327.414062 401.675781 332.722656 388.308594 C 332.820312 388.066406 332.875 387.8125 332.890625 387.554688 C 336.351562 326.140625 344.507812 287.179688 357.355469 270.660156 C 357.414062 270.585938 357.46875 270.507812 357.515625 270.429688 C 375.855469 240.117188 402.324219 213.082031 436.925781 189.320312 L 436.960938 189.300781 C 470.5625 165.402344 510.582031 147.027344 557.015625 134.171875 L 767.96875 93.578125 Z M 767.96875 88.667969 " fill-opacity="1" fill-rule="nonzero"/></g><g clip-path="url(#aa01cf0250)"><path fill="#000000" d="M 74.105469 80.214844 C 66.585938 80.214844 58.109375 81.304688 48.683594 83.484375 C 32.902344 86.972656 16.671875 93.320312 -0.0117188 102.539062 L -0.0117188 108.046875 C 17.082031 98.355469 33.667969 91.738281 49.746094 88.1875 L 49.769531 88.183594 C 58.878906 86.078125 67.003906 85.023438 74.136719 85.023438 C 84.605469 85.023438 92.945312 87.289062 99.15625 91.824219 C 111.800781 102.78125 120.945312 122.066406 126.585938 149.679688 C 130.554688 185.898438 123.894531 213.28125 106.601562 231.832031 L 106.59375 231.839844 C 99.792969 239.203125 87.628906 247.53125 70.105469 256.832031 C 70.046875 256.863281 69.988281 256.898438 69.929688 256.933594 C 63.582031 261.023438 40.265625 270.71875 -0.0117188 286.019531 L -0.0117188 291.175781 C 41.449219 275.453125 65.601562 265.410156 72.449219 261.046875 C 90.40625 251.511719 102.964844 242.871094 110.125 235.121094 C 128.445312 215.472656 135.523438 186.777344 131.367188 149.039062 C 131.359375 148.964844 131.347656 148.894531 131.332031 148.820312 C 125.460938 120.023438 115.761719 99.785156 102.230469 88.109375 C 102.183594 88.066406 102.132812 88.027344 102.082031 87.988281 C 95.027344 82.808594 85.699219 80.214844 74.105469 80.214844 Z M 74.105469 80.214844 " fill-opacity="1" fill-rule="nonzero"/></g><g clip-path="url(#7a14801763)"><path fill="#000000" d="M 51.917969 156.902344 C 46.039062 156.902344 39.171875 157.878906 31.316406 159.835938 C 31.289062 159.84375 31.261719 159.847656 31.238281 159.855469 C 20.671875 162.875 10.257812 166.742188 -0.0117188 171.457031 L -0.0117188 176.773438 C 10.671875 171.742188 21.515625 167.652344 32.511719 164.507812 C 39.910156 162.667969 46.296875 161.746094 51.675781 161.746094 C 63.328125 161.746094 70.226562 166.070312 72.378906 174.710938 C 72.960938 177.042969 73.226562 179.699219 73.175781 182.675781 C 72.527344 192.070312 62.964844 202.191406 44.492188 213.039062 C 44.378906 213.105469 44.273438 213.179688 44.171875 213.265625 C 40.890625 216 26.164062 223.574219 -0.0117188 235.992188 L -0.0117188 241.304688 C 27.503906 228.265625 43.203125 220.199219 47.089844 217.105469 C 66.980469 205.398438 77.277344 194 77.992188 182.910156 C 77.992188 182.875 77.996094 182.839844 77.996094 182.800781 C 78.054688 179.382812 77.742188 176.300781 77.058594 173.546875 C 74.296875 162.449219 65.917969 156.902344 51.917969 156.902344 Z M 51.917969 156.902344 " fill-opacity="1" fill-rule="nonzero"/></g><g clip-path="url(#c8054783cc)"><path fill="#000000" d="M 375.359375 -0.0078125 L 370.527344 -0.0078125 C 371.390625 7.0625 371.375 13.957031 370.480469 20.679688 C 369.351562 27.148438 365.578125 33.34375 359.167969 39.265625 C 325.132812 59.222656 306.441406 73.019531 303.09375 80.652344 C 298.390625 87.003906 293.636719 96.578125 288.835938 109.378906 C 288.804688 109.472656 288.773438 109.566406 288.75 109.664062 C 276.328125 161.660156 266.65625 191.484375 259.726562 199.140625 C 259.601562 199.28125 259.488281 199.4375 259.398438 199.605469 C 250.621094 215.734375 230.769531 233.171875 199.847656 251.914062 C 185.785156 259.507812 174.382812 263.300781 165.644531 263.300781 C 158.0625 263.300781 152.484375 260.441406 148.910156 254.726562 C 148.453125 253.308594 150.007812 249.71875 153.574219 243.960938 C 174.304688 217.933594 186.742188 200.6875 190.882812 192.21875 C 196.628906 181.71875 200.46875 170.207031 202.394531 157.683594 L 202.398438 157.667969 C 208.886719 113.734375 200.59375 85.941406 177.519531 74.292969 C 177.496094 74.28125 177.46875 74.269531 177.445312 74.257812 C 148.601562 60.90625 112.574219 54.230469 69.355469 54.230469 C 59.625 54.230469 49.53125 54.566406 39.074219 55.246094 C 39.046875 55.246094 39.023438 55.25 38.996094 55.25 C 25.066406 56.59375 12.0625 58.523438 -0.0117188 61.046875 L -0.0117188 65.96875 C 12.148438 63.386719 25.292969 61.414062 39.417969 60.054688 C 49.773438 59.386719 59.757812 59.050781 69.378906 59.050781 C 111.851562 59.050781 147.1875 65.570312 175.382812 78.613281 C 196.359375 89.230469 203.777344 115.347656 197.628906 156.964844 C 195.78125 168.941406 192.117188 179.9375 186.628906 189.945312 C 186.609375 189.980469 186.589844 190.015625 186.574219 190.050781 C 182.609375 198.191406 170.324219 215.195312 149.714844 241.066406 C 149.65625 241.140625 149.601562 241.214844 149.550781 241.296875 C 144.9375 248.726562 143.269531 253.886719 144.539062 256.777344 C 144.582031 256.878906 144.632812 256.976562 144.691406 257.066406 C 149.210938 264.460938 156.117188 268.160156 165.410156 268.160156 C 175.085938 268.160156 187.347656 264.148438 202.195312 256.128906 C 202.230469 256.109375 202.265625 256.089844 202.300781 256.070312 C 233.835938 236.957031 254.238281 218.984375 263.496094 202.15625 C 270.949219 193.589844 280.917969 163.183594 293.402344 110.941406 C 298.085938 98.46875 302.664062 89.253906 307.136719 83.296875 C 307.265625 83.121094 307.371094 82.929688 307.453125 82.726562 C 310.003906 76.1875 328.128906 63.039062 361.832031 43.289062 C 361.980469 43.203125 362.117188 43.101562 362.242188 42.988281 C 369.605469 36.246094 373.941406 29.050781 375.246094 21.402344 C 375.25 21.375 375.257812 21.34375 375.261719 21.316406 C 376.183594 14.367188 376.222656 7.261719 375.382812 -0.0078125 Z M 375.359375 -0.0078125 " fill-opacity="1" fill-rule="nonzero"/></g><g clip-path="url(#0bd1f5670d)"><path fill="#000000" d="M 129.421875 -0.0078125 L 120.625 -0.0078125 C 126.980469 4.027344 133.535156 8.597656 140.285156 13.703125 C 140.476562 13.847656 140.6875 13.960938 140.914062 14.042969 C 143.957031 15.492188 163.464844 33.066406 199.4375 66.765625 C 199.59375 66.910156 199.769531 67.035156 199.957031 67.136719 C 209.628906 72.265625 220.117188 74.832031 231.421875 74.832031 C 233.375 74.832031 235.351562 74.753906 237.355469 74.601562 C 237.453125 74.59375 237.550781 74.582031 237.648438 74.5625 C 270.992188 67.851562 285.347656 52.992188 280.71875 29.988281 C 279.949219 26.160156 278.632812 22.113281 276.773438 17.855469 C 276.730469 17.753906 276.675781 17.65625 276.621094 17.5625 C 272.957031 11.574219 268.457031 5.71875 263.121094 -0.0078125 L 256.433594 -0.0078125 C 262.910156 6.476562 268.238281 13.128906 272.425781 19.941406 C 274.109375 23.828125 275.296875 27.492188 275.992188 30.941406 C 279.980469 50.761719 266.929688 63.714844 236.839844 69.804688 C 235.019531 69.941406 233.21875 70.007812 231.4375 70.007812 C 221.03125 70.007812 211.386719 67.679688 202.496094 63.023438 C 166.347656 29.164062 146.5 11.382812 142.957031 9.675781 C 138.355469 6.207031 133.84375 2.976562 129.421875 -0.0078125 Z M 129.421875 -0.0078125 " fill-opacity="1" fill-rule="nonzero"/></g><g clip-path="url(#a6a3ecf9ab)"><path fill="#000000" d="M 560.40625 -0.0078125 C 558.785156 10.539062 555.78125 22.226562 551.394531 35.050781 C 551.339844 35.210938 551.300781 35.375 551.28125 35.542969 C 548.84375 55.894531 516.050781 86.722656 452.902344 128.03125 C 452.613281 128.222656 452.367188 128.472656 452.179688 128.765625 C 448.574219 134.503906 448.9375 138.738281 453.277344 141.464844 C 453.878906 141.84375 454.558594 142.175781 455.3125 142.464844 C 455.390625 142.496094 455.472656 142.523438 455.554688 142.542969 C 456.910156 142.90625 458.457031 143.085938 460.199219 143.085938 C 465.789062 143.085938 473.351562 141.21875 482.886719 137.484375 C 482.921875 137.46875 482.960938 137.453125 482.996094 137.4375 L 571.894531 97.378906 C 583.457031 92.480469 595.257812 88.660156 607.296875 85.914062 C 607.394531 85.890625 607.488281 85.863281 607.578125 85.832031 C 621.644531 80.761719 669.523438 77.652344 751.214844 76.503906 C 751.289062 76.5 751.363281 76.496094 751.4375 76.488281 C 757.070312 75.886719 762.578125 74.957031 767.964844 73.699219 L 767.96875 73.699219 L 767.96875 68.742188 L 767.964844 68.742188 C 762.457031 70.078125 756.8125 71.058594 751.035156 71.683594 L 751.03125 71.683594 C 669.121094 72.835938 620.800781 76.027344 606.078125 81.246094 L 606.074219 81.246094 C 593.789062 84.058594 581.753906 87.960938 569.964844 92.960938 C 569.949219 92.96875 569.929688 92.976562 569.914062 92.980469 L 481.050781 133.027344 C 472.070312 136.535156 465.167969 138.292969 460.339844 138.292969 C 459.054688 138.292969 457.914062 138.167969 456.921875 137.917969 C 456.507812 137.753906 456.148438 137.578125 455.84375 137.382812 C 454.304688 136.417969 454.355469 134.546875 455.996094 131.773438 C 519.828125 89.96875 553.175781 58.175781 556.035156 36.394531 C 560.566406 23.105469 563.648438 10.96875 565.28125 -0.0078125 L 565.285156 -0.0078125 Z M 560.40625 -0.0078125 " fill-opacity="1" fill-rule="nonzero"/></g><g clip-path="url(#bb7d64c20d)"><path fill="#000000" d="M 653.8125 -0.0078125 C 649.425781 7.410156 647.527344 14.320312 648.117188 20.714844 C 648.128906 20.851562 648.152344 20.988281 648.1875 21.117188 C 653.863281 42.296875 669.019531 52.886719 693.652344 52.886719 C 703.757812 52.886719 715.453125 51.105469 728.746094 47.542969 C 729.804688 47.257812 730.871094 46.964844 731.949219 46.660156 L 731.976562 46.648438 C 744.113281 43.042969 756.109375 38.332031 767.964844 32.515625 L 767.96875 32.515625 L 767.96875 27.132812 L 767.964844 27.132812 C 755.65625 33.316406 743.203125 38.285156 730.605469 42.027344 C 729.558594 42.324219 728.523438 42.609375 727.5 42.886719 C 714.761719 46.300781 703.605469 48.007812 694.035156 48.007812 C 671.695312 48.007812 657.984375 38.703125 652.90625 20.097656 L 652.902344 20.097656 C 652.390625 14.007812 654.527344 7.304688 659.3125 -0.0078125 L 657.480469 -0.0078125 L 659.300781 -0.0078125 Z M 653.8125 -0.0078125 " fill-opacity="1" fill-rule="nonzero"/></g></g></g></g></svg>